<svg version="1.1" viewBox="0.0 0.0 960.0 240.0" fill="none" stroke="none" stroke-linecap="square" stroke-miterlimit="10" xmlns:xlink="http://www.w3.org/1999/xlink" xmlns="http://www.w3.org/2000/svg"><clipPath id="p.0"><path d="m0 0l960.0 0l0 240.0l-960.0 0l0 -240.0z" clip-rule="nonzero"/></clipPath><g clip-path="url(#p.0)"><path fill="#000000" fill-opacity="0.0" d="m0 0l960.0 0l0 240.0l-960.0 0z" fill-rule="evenodd"/><path fill="#000000" fill-opacity="0.0" d="m-35.83202 -32.358738l1002.6772 0l0 180.06299l-1002.6772 0z" fill-rule="evenodd"/><path fill="#000000" fill-opacity="0.0" d="m8.806499 -23.358784l913.40015 0l0 252.00005l-913.40015 0l0 -252.00005z" fill-rule="nonzero"/><path fill="#205d86" d="m81.212746 172.43814q-5.0 1.203125 -6.8125 -4.390625q-2.796875 -7.8125 -2.796875 -16.40625q0 -2.40625 0.203125 -3.40625l0.40625 -4.1875l-7.8125 6.1875q-6.390621 5.609375 -12.703121 8.40625q-6.296875 2.796875 -11.484375 2.796875q-3.40625 -0.59375 -6.515625 -2.890625q-3.093752 -2.3125 -4.484377 -5.5q-0.8125 -1.609375 -0.8125 -4.8125q0 -7.390625 4.000002 -17.484375q4.0 -10.109375 10.0 -16.703125q8.609375 -13.0 19.203125 -13.0q4.999996 0 9.999996 3.0q5.0 2.0 5.796875 2.0q1.203125 0 1.796875 -1.0q0.609375 -1.0 1.203125 -3.609375q2.203125 -9.203125 4.203125 -15.390625q4.40625 -13.203125 7.59375 -21.203125q3.203125 -8.000004 7.8125 -17.609379q2.0 -4.1875 3.5 -5.484375q1.5 -1.3125 3.296875 -1.109375q4.40625 0 6.796875 6.0q0.609375 1.40625 0.609375 2.796875q0 1.40625 -1.203125 3.796875q-5.203125 9.0 -12.8125 29.406254q-7.59375 20.40625 -11.796875 35.40625q-1.796875 6.59375 -3.09375 19.0q-1.296875 12.390625 -1.296875 20.59375q0 3.59375 0.390625 5.203125q1.0 3.390625 1.0 6.0q0 2.0 -1.0 2.6875q-1.0 0.703125 -3.1875 0.90625zm-33.812496 -22.203125q4.609375 -1.0 11.203125 -6.0q1.203125 -0.796875 5.796871 -4.1875q4.609375 -3.40625 7.0 -7.203125q2.40625 -3.796875 3.40625 -8.609375q0.203125 -3.59375 -0.703125 -5.890625q-0.890625 -2.296875 -3.5 -4.5q-2.0 -1.40625 -5.0 -1.40625q-5.390621 0 -9.999996 4.40625q-5.390625 4.796875 -9.59375 12.40625q-4.203125 7.59375 -6.40625 17.59375q-0.59375 3.796875 4.0 3.796875q2.40625 0 3.796875 -0.40625zm95.2094 11.40625q-5.0 4.40625 -12.0 4.40625q-5.0000076 0 -9.500008 -2.40625q-4.5 -2.40625 -7.5 -6.59375q-2.609375 -3.203125 -3.8125 -7.203125q-1.1875 -4.0 -1.1875 -9.796875q0 -2.0 0.390625 -8.0q0.609375 -7.40625 4.90625 -15.40625q4.296875 -8.0 10.6875 -14.296875q6.4062576 -6.296875 12.609383 -8.703125q3.203125 -2.0 5.796875 -2.0q1.40625 0 2.796875 0.203125q1.40625 0.203125 3.015625 0.390625q4.390625 0.609375 6.6875 1.71875q2.3125 1.09375 3.90625 3.28125q5.0 5.0 5.0 11.609375q-0.796875 4.796875 -6.203125 11.0q-5.390625 6.203125 -13.0 10.0q-3.59375 1.203125 -8.203125 1.203125q-6.1875 0 -10.000008 -2.609375q-1.796875 -0.59375 -2.796875 -0.59375q-1.796875 0 -2.703125 2.40625q-0.890625 2.390625 -1.6875 8.796875q-0.203125 1.390625 -0.203125 4.0q0 10.1875 6.796875 11.1875q4.5937576 1.0 6.5937576 1.0q2.40625 0 5.40625 -1.59375l3.796875 -2.203125q1.203125 -0.59375 2.203125 -1.59375q1.0 -1.0 1.796875 -1.796875q0.40625 -0.40625 1.203125 -1.296875q0.796875 -0.90625 1.5 -1.203125q0.703125 -0.3125 1.296875 -0.3125q0.796875 0 1.796875 0.90625q1.0 0.90625 1.609375 1.296875q1.796875 0 0.796875 2.5q-1.0 2.5 -4.296875 5.8125q-3.296875 3.296875 -7.5 5.890625zm-0.203125 -42.40625q3.40625 -1.390625 6.90625 -4.984375q3.5 -3.609375 3.5 -6.015625q0 -2.390625 -1.8125 -3.984375q-1.796875 -1.609375 -5.0 -1.609375q-2.390625 0 -3.59375 0.40625q-2.796875 0.796875 -6.609375 4.296875q-3.796875 3.5 -6.59375 7.109375q-2.7968826 3.59375 -2.2031326 4.1875q1.0000076 1.796875 7.8125076 1.796875q4.59375 0 7.59375 -1.203125zm51.000015 44.8125q-6.203125 0 -8.203125 -0.703125q-2.0 -0.703125 -4.59375 -3.109375q-2.0 -4.0 -4.0 -6.0q-0.796875 -2.1875 -0.796875 -6.59375q0 -5.0 1.1875 -10.890625q1.203125 -5.90625 3.203125 -11.109375q0.796875 -1.59375 1.296875 -3.0q0.5 -1.40625 0.703125 -1.796875q0 -1.40625 5.09375 -8.703125q5.109375 -7.296875 8.109375 -10.09375q1.40625 -1.609375 4.296875 -3.40625q2.90625 -1.796875 5.109375 -2.59375q5.59375 -2.0 9.796875 -2.0q5.796875 0 9.796875 5.390625q4.40625 4.40625 4.40625 9.796875q0 2.0 -0.609375 4.40625q-2.0 8.0 -5.796875 8.0q-2.59375 0 -5.0 -3.0q-0.796875 -2.0 -0.796875 -2.59375q0 -0.609375 0.796875 -3.40625q0.40625 -2.0 0.40625 -2.796875q0 -2.40625 -0.8125 -4.203125q-0.796875 -1.796875 -2.1875 -1.796875q-4.609375 0 -12.0 8.0q-2.609375 2.796875 -6.71875 8.796875q-4.09375 6.0 -6.09375 10.796875q-2.0 6.0 -3.203125 9.8125q-1.1875 3.796875 -1.59375 4.796875q0 0.390625 0.5 1.390625q0.5 1.0 0.5 1.609375q0 1.390625 0.59375 2.203125q0.609375 0.796875 2.203125 1.59375q2.203125 1.59375 5.203125 1.59375q3.203125 0 7.40625 -2.0q2.59375 -1.203125 7.390625 -5.203125l4.8125 -3.59375q1.390625 -1.0 2.484375 -1.703125q1.109375 -0.703125 1.703125 -1.0q0.609375 -0.296875 0.609375 0.109375q0 0.796875 0.59375 0.796875q0.609375 0 1.40625 -0.796875q1.796875 -2.40625 4.59375 -2.40625q1.609375 0 1.609375 0.59375l-0.203125 1.0q0 1.0 1.0 2.0q0 0.8125 -0.5 2.109375q-0.5 1.296875 -1.296875 2.09375q-1.203125 1.796875 -4.109375 4.296875q-2.890625 2.5 -3.890625 3.3125l-0.203125 0q-1.0 0 -2.796875 1.796875q-3.0 2.796875 -5.203125 2.796875q-0.796875 0.40625 -1.796875 0.90625q-1.0 0.5 -1.0 1.09375q-2.0 2.0 -4.8125 2.703125q-2.796875 0.703125 -8.59375 0.703125zm70.2 -3.0q-3.0 0.59375 -4.40625 0.59375q-1.1875 0 -2.0 -0.5q-0.796875 -0.5 -2.1874847 -1.90625q-4.40625 -2.1875 -6.90625 -6.28125q-2.5 -4.109375 -2.09375 -7.3125q0.796875 -9.203125 5.296875 -20.203125q4.5 -11.0 10.687485 -19.390625q6.203125 -8.40625 12.015625 -10.40625q3.59375 -1.40625 6.0 -1.40625q4.796875 0 6.796875 4.0q1.390625 2.8125 1.390625 4.203125q0 2.40625 -2.796875 3.203125q-0.59375 0 -1.40625 0.609375q-0.796875 0.59375 -0.796875 1.1875q0.203125 0.203125 1.8125 0.203125q3.390625 0 8.390625 -1.0q5.0 -1.0 6.40625 -2.203125q1.203125 -0.59375 2.0 -0.59375l2.796875 0.390625q3.40625 1.0 3.40625 2.40625q0 0.796875 0.59375 1.5q0.59375 0.703125 1.40625 0.703125q1.1875 0.203125 -0.3125 1.609375q-1.5 1.390625 -5.6875 4.59375q-1.0 0.59375 -2.90625 1.796875q-1.90625 1.203125 -2.203125 2.0q-0.296875 0.796875 0.109375 2.203125q0.796875 1.796875 0.796875 4.390625q0 6.609375 -5.703125 14.609375q-5.703125 8.0 -14.203125 14.0q-8.5 6.0 -16.296875 7.0zm-3.40625 -8.8125q1.203125 0 6.0 -2.390625q2.609375 -2.609375 4.203125 -3.203125q1.40625 0 3.796875 -2.09375q2.40625 -2.109375 7.40625 -8.5q3.796875 -4.40625 5.6875 -7.40625q1.90625 -3.0 1.90625 -5.796875q0 -1.203125 -0.1875 -1.796875q-0.203125 -0.609375 -1.3125 -1.109375q-1.09375 -0.5 -2.09375 -0.890625q-1.796875 0 -3.296875 -0.90625q-1.5 -0.90625 -4.296875 -3.09375l-3.203125 -4.0l-3.40625 3.390625q-4.796875 4.796875 -9.796875 15.703125q-5.0 10.90625 -5.59375 16.90625q-0.20310974 2.796875 0.890625 3.90625q1.109375 1.09375 3.296875 1.28125zm67.00629 6.203125q-4.0 -3.796875 -5.90625 -7.390625q-1.890625 -3.609375 -2.6875 -11.0q-0.609375 -4.609375 1.59375 -13.40625q2.203125 -8.796875 5.890625 -17.09375q3.703125 -8.3125 7.3125 -11.90625q2.59375 -3.40625 4.59375 -3.40625q1.203125 0 4.796875 1.609375q2.203125 2.59375 2.203125 5.59375q0 2.796875 -2.390625 6.796875q-3.8125 5.203125 -6.8125 13.203125q-3.0 8.0 -4.0 14.796875q-2.0 6.609375 -2.0 8.609375q0 1.59375 0.90625 2.5q0.90625 0.890625 2.90625 1.296875q3.796875 0.796875 8.984375 -2.796875q5.203125 -3.609375 10.203125 -10.40625q5.0 -6.796875 8.0 -14.796875q1.0 -2.59375 1.8125 -6.796875q1.390625 -4.796875 1.59375 -5.40625q1.0 -4.0 3.0 -6.09375q2.0 -2.109375 4.203125 -2.109375q1.390625 0 2.796875 1.0q1.40625 0.609375 1.90625 1.3125q0.5 0.6875 0.5 2.5q0 2.1875 -0.203125 3.796875q0 4.390625 -1.203125 7.703125q-1.203125 3.296875 -3.796875 8.5q-2.203125 3.796875 -3.609375 7.390625q-3.1875 7.0 -9.390625 14.703125q-6.203125 7.703125 -11.40625 9.90625q-5.59375 3.390625 -10.390625 3.390625q-3.40625 0 -9.40625 -2.0zm51.203125 54.796875q-2.203125 -0.796875 -4.40625 -3.5q-2.203125 -2.6875 -2.203125 -4.5q0 -3.0 4.0 -19.703125q4.0 -16.6875 7.8125 -27.09375q0.1875 -0.796875 2.59375 -6.59375q2.40625 -5.796875 4.59375 -14.0q1.609375 -5.796875 8.40625 -22.609375l5.796875 -14.390625l4.609375 -12.609375q0.59375 -1.59375 2.09375 -2.890625q1.5 -1.296875 2.703125 -1.703125q0.390625 -0.203125 1.390625 -0.203125q2.8125 0 4.8125 3.203125q0.59375 1.203125 0.59375 2.40625q0 2.0 -2.40625 7.796875l-1.390625 4.0l7.203125 -1.609375q2.796875 0 4.59375 0.203125q7.203125 0 9.0 0.40625q4.40625 0.203125 6.296875 1.609375q1.90625 1.390625 3.703125 4.390625q3.59375 3.390625 4.0 6.0q0.40625 2.390625 0.40625 3.796875q0 6.40625 -3.8125 13.109375q-3.796875 6.6875 -9.0 10.09375q-2.0 0.796875 -3.40625 1.59375q-1.390625 0.796875 -1.78125 1.0q-0.40625 1.609375 -9.109375 5.109375q-8.703125 3.5 -14.296875 4.296875q-2.0 0.390625 -4.59375 0.390625q-2.203125 0 -3.40625 -0.59375q-2.40625 -0.40625 -3.109375 -0.40625q-0.6875 0 -0.6875 0.8125q-5.0 14.796875 -8.203125 27.0q-7.0 21.1875 -9.40625 27.6875q-2.390625 6.5 -3.390625 7.5zm25.0 -73.796875q0.203125 0.796875 2.203125 0.796875q4.1875 0 12.890625 -3.890625q8.703125 -3.90625 13.703125 -8.109375q4.203125 -5.0 6.5 -8.296875q2.296875 -3.296875 2.296875 -5.09375q0 -0.796875 -0.796875 -1.609375q-2.0 -3.0 -7.203125 -3.0q-6.59375 0 -15.796875 5.0q-4.0 1.40625 -5.703125 3.703125q-1.703125 2.296875 -3.109375 5.703125q-1.390625 3.40625 -2.1875 5.203125q-3.203125 7.59375 -2.796875 9.59375zm65.39691 29.203125q-0.59375 0.203125 -2.0 0.203125q-3.203125 0 -5.0 -3.203125q-1.796875 -3.203125 -1.796875 -8.796875q0 -4.609375 1.203125 -10.609375q2.1875 -5.796875 2.1875 -8.390625q0.609375 -3.796875 4.109375 -13.703125q3.5 -9.90625 4.5 -11.90625q0.796875 0 1.390625 -1.296875q0.609375 -1.296875 0.609375 -2.890625q0 -1.8125 0.6875 -3.703125q0.703125 -1.90625 1.5156555 -2.703125q0 -0.59375 0.5 -2.1875q0.5 -1.609375 0.5 -2.21875q0 -0.390625 0.5 -1.484375q0.5 -1.109375 0.5 -1.703125q3.1875 -6.203125 11.1875 -27.90625q8.0 -21.703129 8.0 -24.093754q0 -3.203125 3.203125 -3.203125q1.0 -1.0 3.203125 -1.0l3.203125 3.203125q1.390625 1.390625 1.796875 2.890625q0.40625 1.5 0.40625 4.5q0 3.0 -0.8125 5.203125q-0.796875 2.203125 -4.0 9.0q-0.59375 1.4062538 -1.59375 3.3125038q-1.0 1.890625 -2.203125 4.6875q-0.390625 1.0 -3.203125 7.203125q-2.0 4.0 -2.0 4.59375q0 0.609375 -0.796875 2.515625q-0.796875 1.890625 -1.390625 3.890625q-1.609375 3.203125 -5.109375 11.296875q-3.5 8.09375 -3.5 8.90625q0 2.1875 -1.0 3.1875q-0.59375 0 -0.796875 0.90625q-0.203125 0.90625 -0.203125 1.296875q0 2.0 -3.203125 10.609375l-1.796875 5.796875q-3.7969055 13.0 -5.2969055 19.0q-1.5 6.0 -1.5 10.203125q0 5.0 -0.296875 6.40625q-0.296875 1.390625 -1.703125 2.1875zm63.003082 -7.0q-5.0 4.40625 -12.0 4.40625q-5.0 0 -9.5 -2.40625q-4.5 -2.40625 -7.5 -6.59375q-2.609375 -3.203125 -3.8125 -7.203125q-1.1875 -4.0 -1.1875 -9.796875q0 -2.0 0.390625 -8.0q0.609375 -7.40625 4.90625 -15.40625q4.296875 -8.0 10.6875 -14.296875q6.40625 -6.296875 12.609375 -8.703125q3.203125 -2.0 5.796875 -2.0q1.40625 0 2.796875 0.203125q1.40625 0.203125 3.015625 0.390625q4.390625 0.609375 6.6875 1.71875q2.3125 1.09375 3.90625 3.28125q5.0 5.0 5.0 11.609375q-0.796875 4.796875 -6.203125 11.0q-5.390625 6.203125 -13.0 10.0q-3.59375 1.203125 -8.203125 1.203125q-6.1875 0 -10.0 -2.609375q-1.796875 -0.59375 -2.796875 -0.59375q-1.796875 0 -2.703125 2.40625q-0.890625 2.390625 -1.6875 8.796875q-0.203125 1.390625 -0.203125 4.0q0 10.1875 6.796875 11.1875q4.59375 1.0 6.59375 1.0q2.40625 0 5.40625 -1.59375l3.796875 -2.203125q1.203125 -0.59375 2.203125 -1.59375q1.0 -1.0 1.796875 -1.796875q0.40625 -0.40625 1.203125 -1.296875q0.796875 -0.90625 1.5 -1.203125q0.703125 -0.3125 1.296875 -0.3125q0.796875 0 1.796875 0.90625q1.0 0.90625 1.609375 1.296875q1.796875 0 0.796875 2.5q-1.0 2.5 -4.296875 5.8125q-3.296875 3.296875 -7.5 5.890625zm-0.203125 -42.40625q3.40625 -1.390625 6.90625 -4.984375q3.5 -3.609375 3.5 -6.015625q0 -2.390625 -1.8125 -3.984375q-1.796875 -1.609375 -5.0 -1.609375q-2.390625 0 -3.59375 0.40625q-2.796875 0.796875 -6.609375 4.296875q-3.796875 3.5 -6.59375 7.109375q-2.796875 3.59375 -2.203125 4.1875q1.0 1.796875 7.8125 1.796875q4.59375 0 7.59375 -1.203125zm81.203125 47.40625q-3.40625 0 -4.796875 -2.0q-2.40625 -3.0 -3.3125 -4.890625q-0.890625 -1.90625 -0.890625 -4.515625q0 -2.1875 0.203125 -3.59375l0.796875 -9.203125q-0.40625 -0.390625 -1.515625 0.203125q-1.09375 0.59375 -2.0 1.40625q-0.890625 0.796875 -1.6875 1.390625l-3.40625 2.796875q-8.796875 10.0 -15.296875 14.203125q-6.5 4.203125 -12.09375 4.203125l-2.203125 -0.203125q-4.203125 -0.390625 -6.203125 -4.09375q-2.0 -3.703125 -2.0 -9.5q0 -3.0 0.203125 -4.40625q0.796875 -7.0 3.0 -13.0q2.203125 -6.0 6.796875 -13.0q3.40625 -6.0 9.90625 -11.59375q6.5 -5.609375 12.890625 -7.796875q6.0 -2.203125 11.203125 -2.203125q3.40625 0 6.796875 1.0q2.40625 1.203125 3.8125 1.203125q1.59375 0 2.390625 -2.0q0.796875 -1.203125 1.796875 -4.40625q1.609375 -4.40625 2.609375 -6.203125l4.390625 -13.0l5.203125 -12.390625l5.796875 -13.609379q4.0 -8.0 6.8125 -8.0q1.59375 0 3.796875 2.203125q1.796875 2.0 1.796875 4.40625q0 2.0 -1.109375 5.0q-1.09375 3.0 -2.6875 7.0q-2.609375 4.187504 -5.203125 10.000004l-3.0 6.796875q-5.40625 12.796875 -6.40625 15.390625l-1.59375 5.40625q-1.796875 5.59375 -2.59375 9.59375q-1.609375 8.609375 -2.8125 8.609375q-3.59375 3.796875 -6.796875 23.59375q-0.796875 4.796875 -0.796875 18.40625q0 4.59375 -0.296875 5.703125q-0.296875 1.09375 -1.5 1.09375zm-42.609375 -12.59375q3.8125 0 7.90625 -2.90625q4.09375 -2.90625 10.5 -8.703125q5.40625 -5.203125 13.0 -16.203125q7.59375 -11.0 7.59375 -12.796875q0 -0.796875 -2.0 -1.390625q-2.0 -0.609375 -4.390625 -0.609375q-1.609375 0 -3.203125 0.40625q-4.59375 1.0 -8.90625 4.109375q-4.296875 3.09375 -9.09375 8.890625q-5.59375 7.0 -9.203125 14.796875q-3.59375 7.796875 -3.59375 12.0q0 2.40625 1.390625 2.40625zm80.6001 4.1875q-3.796875 1.40625 -5.796875 1.40625q-2.796875 0 -6.0 -2.40625q-2.796875 -2.796875 -2.796875 -5.59375q0 -4.40625 6.796875 -9.0q4.0 -2.40625 5.796875 -2.40625q1.0 0 4.8125 1.40625q5.390625 3.203125 5.390625 7.40625q0 2.390625 -2.109375 4.796875q-2.09375 2.390625 -6.09375 4.390625zm51.20935 7.0q-4.0 -0.390625 -4.90625 -0.984375q-0.890625 -0.609375 -2.09375 -3.203125q-1.609375 -1.609375 -1.90625 -2.609375q-0.296875 -1.0 -0.09375 -2.0q2.390625 0 2.796875 -0.796875q0 -0.59375 0.703125 -0.796875q0.703125 -0.203125 1.5 0q5.390625 0.390625 15.59375 -5.609375q10.203125 -6.0 20.40625 -15.390625q5.796875 -7.40625 8.09375 -11.59375q2.296875 -4.203125 2.296875 -6.8125q0 -1.59375 -0.59375 -3.0q-0.59375 -1.390625 -4.203125 -1.390625q-6.203125 0 -12.796875 4.390625q-8.59375 5.40625 -13.796875 9.90625q-5.203125 4.5 -9.609375 10.5q-2.0 2.59375 -4.0 6.5q-2.0 3.890625 -2.59375 5.09375q0 0.796875 -2.296875 2.0q-2.296875 1.203125 -3.90625 1.203125q-1.0 -0.40625 -2.296875 -1.59375q-1.296875 -1.203125 -1.5 -2.8125q-0.40625 -0.390625 -1.3125 -0.984375q-0.890625 -0.609375 -1.1875 -1.203125q-0.296875 -0.609375 -0.296875 -1.40625q0 -1.203125 1.09375 -5.296875q1.109375 -4.109375 1.703125 -6.109375q1.59375 -7.59375 4.09375 -15.796875q2.5 -8.203125 3.5 -9.0q0.203125 -0.390625 0.90625 -2.1875q0.703125 -1.8125 0.703125 -3.8125q0.390625 -1.796875 1.296875 -4.09375q0.90625 -2.296875 0.90625 -2.703125q1.0 -0.796875 6.390625 -15.796875q0 -0.796875 4.40625 -10.609375q6.59375 -15.000004 8.0 -19.187504q1.796875 -2.609375 3.203125 -5.40625q2.1875 -4.0 3.1875 -4.40625q1.609375 -0.390625 4.109375 0.609375q2.5 1.0 3.890625 3.0q1.0 1.390625 1.0 2.0q0 1.0 -1.09375 3.703125q-1.09375 2.6875 -2.5 5.5q-1.40625 2.796875 -2.0 4.1875l-5.0 10.406254q-5.40625 11.40625 -8.8125 20.3125q-3.390625 8.890625 -7.1875 20.28125l-3.59375 9.8125l-1.0 4.390625l5.0 -4.796875q2.390625 -1.796875 8.796875 -7.40625q1.390625 -1.1875 2.484375 -2.09375q1.109375 -0.90625 1.71875 -1.5q2.390625 -1.59375 6.984375 -3.59375q4.609375 -2.0 6.40625 -2.40625q4.0 -1.0 8.796875 -1.0q4.203125 0 7.0 2.0q2.8125 2.0 5.40625 6.40625q1.796875 3.59375 1.796875 7.796875q0 6.203125 -3.203125 11.59375q-1.0 0.796875 -2.0 2.109375q-1.0 1.296875 -1.0 2.09375q-0.1875 1.203125 -3.390625 5.40625q-3.203125 4.1875 -7.0 8.390625q-5.203125 5.40625 -13.703125 10.8125q-8.5 5.390625 -14.09375 7.390625q-1.203125 0.203125 -4.515625 0.703125q-3.296875 0.5 -4.6875 0.890625zm68.0 -6.0q-2.203125 -1.1875 -3.109375 -2.390625q-0.890625 -1.203125 -0.890625 -3.40625q0 -4.0 2.390625 -12.796875q0.609375 -5.0 1.296875 -8.09375q0.703125 -3.109375 2.515625 -6.109375q0.796875 -3.0 2.796875 -9.0q4.390625 -14.0 6.0 -21.59375q1.59375 -4.40625 2.796875 -7.796875q1.203125 -3.40625 2.203125 -6.203125q-0.40625 1.203125 5.0 -13.609375q1.59375 -4.796879 2.203125 -7.390629q2.1875 -9.0 5.0 -13.609375q1.390625 -2.0 2.09375 -3.390625q0.703125 -1.40625 1.296875 -2.203125q0 -0.40625 0.59375 -0.703125q0.609375 -0.296875 1.40625 -0.296875q2.40625 0 4.0 1.59375q1.0 -0.390625 2.5 2.40625q1.5 2.796875 1.296875 4.40625q0 2.59375 -1.390625 4.796875q-0.796875 0.796875 -1.796875 2.90625q-1.0 2.09375 -1.8125 3.484375q-0.390625 1.40625 -1.296875 4.703129q-0.890625 3.296875 -1.703125 5.5q-1.0 2.40625 -1.90625 4.515625q-0.890625 2.09375 -1.484375 3.6875q-0.796875 2.59375 -2.796875 7.796875q-2.8125 6.796875 -3.8125 10.609375q-0.390625 1.1875 -1.390625 5.0q-2.796875 10.0 -5.40625 14.59375q-1.59375 2.59375 -2.296875 7.0q-0.703125 4.40625 -0.90625 5.40625q-3.0 9.0 -3.0 10.59375q-0.390625 1.796875 -1.390625 7.0q-1.203125 6.40625 -2.40625 9.203125q-0.390625 4.59375 -3.0 4.59375q-1.59375 0 -3.59375 -1.203125zm44.393677 6.40625q-2.390625 0 -3.796875 -0.796875q-1.40625 -0.796875 -4.0 -3.0q-6.59375 -7.0 -6.59375 -12.796875q0 -1.40625 0.1875 -2.0q0.609375 -1.40625 0.5 -2.796875q-0.09375 -1.40625 -0.09375 -1.8125q-0.796875 -0.796875 -0.796875 -1.09375q0 -0.296875 0.390625 -0.59375q0.40625 -0.3125 0.609375 -0.703125q1.203125 0 0.796875 -2.203125q-0.40625 -1.609375 1.59375 -7.109375q2.0 -5.5 5.0 -10.09375q2.203125 -3.59375 6.5 -9.0q4.3125 -5.40625 7.703125 -8.203125q4.796875 -4.203125 8.59375 -6.203125q3.8125 -2.0 8.40625 -3.0q4.0 -1.0 5.40625 -1.0q1.390625 0 2.484375 0.703125q1.109375 0.703125 2.90625 2.5q5.40625 2.40625 7.5 6.109375q2.109375 3.6875 2.109375 11.5q0 13.0 -10.609375 28.1875q-4.59375 6.609375 -8.59375 10.109375q-4.0 3.5 -10.59375 7.5q-4.203125 3.0 -7.703125 4.296875q-3.5 1.296875 -7.90625 1.5zm19.203125 -21.203125q4.796875 -5.390625 7.6875 -10.1875q2.90625 -4.8125 5.515625 -12.203125q1.0 -3.40625 1.0 -8.203125q0 -6.0 -1.609375 -6.796875q-2.0 -1.0 -4.0 -1.0q-4.390625 0 -9.1875 4.0q-5.8125 5.0 -10.40625 12.296875q-4.59375 7.296875 -9.40625 18.09375q-2.0 4.203125 -2.0 8.203125q0 3.0 1.5 4.796875q1.5 1.796875 4.109375 1.796875q6.59375 0 16.796875 -10.796875zm62.193848 62.40625q-3.0 1.203125 -6.390625 1.203125q-4.796875 0 -9.703125 -2.203125q-4.90625 -2.203125 -8.703125 -6.0q-2.203125 -2.0 -4.203125 -7.109375q-2.0 -5.09375 -0.796875 -5.6875q0.796875 -0.40625 1.609375 -0.40625q1.59375 0 3.09375 0.59375q1.5 0.609375 1.5 1.40625q1.59375 1.40625 4.5 3.40625q2.90625 2.0 4.296875 2.1875q3.609375 1.203125 5.609375 1.203125q2.1875 0 4.1875 -1.390625q3.0 -2.609375 4.90625 -6.515625q1.90625 -3.890625 3.90625 -11.296875l0.59375 -2.59375q5.203125 -23.40625 7.0 -29.0q0.796875 -3.203125 0.796875 -5.203125q0 -1.59375 -0.59375 -1.59375q-0.40625 0 -1.40625 1.203125q-1.796875 0.59375 -5.0 2.1875q-6.796875 3.40625 -8.796875 3.8125l-4.40625 0.1875q-0.796875 0.40625 -1.796875 0.40625q-2.203125 0 -5.40625 -1.296875q-3.1875 -1.296875 -5.796875 -3.296875q-2.796875 -3.609375 -3.296875 -5.0q-0.5 -1.40625 -0.5 -6.203125q-0.203125 -3.203125 3.09375 -9.296875q3.3125 -6.109375 8.109375 -11.5q6.203125 -6.203125 16.203125 -11.59375q10.0 -5.40625 15.796875 -5.21875q0.796875 0.203125 3.09375 0.40625q2.3125 0.203125 4.703125 2.0q2.609375 1.40625 3.796875 3.0q1.203125 1.59375 3.40625 6.203125q2.40625 6.203125 2.40625 12.203125q0 6.1875 -3.0 9.1875q-0.609375 0 -1.8125 0.40625q-1.1875 0.40625 -2.0 0.40625q-0.59375 0 -1.5 1.40625q-0.890625 1.390625 -1.09375 3.1875q-0.40625 2.59375 -1.203125 4.59375q-1.0 2.40625 -1.0 2.8125q0 0.59375 -0.296875 1.09375q-0.296875 0.5 -0.5 0.90625q-1.59375 2.796875 -1.59375 5.59375l-0.8125 2.203125q-1.59375 5.203125 -1.59375 5.59375l-0.796875 4.0q-0.40625 1.0 -1.203125 3.3125q-0.796875 2.296875 -1.59375 9.09375q-7.40625 31.59375 -15.8125 37.0zm-13.796875 -72.609375q3.0 1.203125 6.0 1.203125q7.609375 0 17.609375 -8.0q9.390625 -7.0 12.1875 -17.203125q0.8125 -1.796875 0.8125 -3.390625q0 -2.203125 -2.8125 -2.40625q-0.59375 -0.203125 -2.0 -0.203125q-7.0 0 -17.1875 6.609375q-1.203125 1.796875 -3.3125 3.296875q-2.09375 1.5 -2.6875 1.90625q-0.40625 1.1875 -1.609375 2.0q-3.203125 2.59375 -5.796875 8.796875q-2.59375 6.203125 -1.203125 7.390625z" fill-rule="nonzero"/><a xlink:href="https://www.google.com/url?q=https://decoupled.blog/&amp;sa=D&amp;ust=1590894900167000&amp;usg=AFQjCNHUjV82SVKZvm4PnszCBkyf00qxRg" target="_blank" rel="noreferrer"><path fill="transparent" fill-opacity="0" d="m8.806499 -23.358738l913.40015 0l0 239.99998l-913.40015 0l0 -239.99998z" fill-rule="nonzero"/></a></g></svg>